# xmcd
#
# Track frame offsets:
#	150
#	10066
#	27207
#	44779
#	61179
#	73551
#	98369
#	116371
#	136366
#	157445
#	169606
#	187333
#
# Disc length: 2757 seconds
#
# Revision: 0
# Processed by: cddbd v1.4PL0 Copyright (c) Steve Scherf et al.
# Submitted via: EasyCDDAExtractor 4.6.9.1
#
DISCID=a20ac30c
DTITLE=Travis Haddix - Company is Coming
DYEAR=2002
DGENRE=Blues
TTITLE0=Rough Side Drag
TTITLE1=Tuesday Morning
TTITLE2=Grandson Are Fun
TTITLE3=We spell OX
TTITLE4=My Pet Peeve
TTITLE5=Bad Nes Women
TTITLE6=Let It Show
TTITLE7=Darkness Around My Soul
TTITLE8=The Time Is Now
TTITLE9=All I Can Do Is Sit And Cry
TTITLE10=Loneliness
TTITLE11=Company Is Coming
EXTD=
EXTT0=
EXTT1=
EXTT2=
EXTT3=
EXTT4=
EXTT5=
EXTT6=
EXTT7=
EXTT8=
EXTT9=
EXTT10=
EXTT11=
PLAYORDER=
